<?xml version="1.0" encoding="UTF-8" standalone="no"?><!-- Generator: Gravit.io --><svg xmlns="http://www.w3.org/2000/svg" xmlns:xlink="http://www.w3.org/1999/xlink" style="isolation:isolate" viewBox="0 0 411 731" width="411pt" height="731pt"><defs><clipPath id="_clipPath_iGfVnt7RKJMLYn4EsY9J7Em04XaQrc5P"><rect width="411" height="731"/></clipPath></defs><g clip-path="url(#_clipPath_iGfVnt7RKJMLYn4EsY9J7Em04XaQrc5P)"><path d=" M 374.719 46.085 C 286.885 105.723 181.843 67.071 86.719 110.085 C -16.064 156.563 -42.527 343.018 -167.281 302.085 Q -324.493 250.502 -181.281 -60.915 Q 557.59 -78.081 374.719 46.085 Z " fill="rgb(255,179,209)"/><path d=" M 483.719 -26.915 C 395.885 32.723 290.843 -5.929 195.719 37.085 C 92.936 83.563 66.473 270.018 -58.281 229.085 Q -215.493 177.502 -72.281 -133.915 Q 666.59 -151.081 483.719 -26.915 Z " fill="rgb(255,137,187)"/><path d=" M 461.832 936.815 C 382.668 1008.82 295.236 898.028 203.172 888.47 C 101.594 877.925 -18.922 982.056 -87.064 884.487 C -166.808 770.307 -37.22 661.596 66.098 603.506 C 250.005 500.105 580.844 600.716 514.042 838.86 C 503.426 876.706 491.257 910.051 461.832 936.815 Z " fill="rgb(255,137,187)"/><path d=" M -38.718 696.701 C -2.726 595.924 126.542 652.569 212.282 617.701 C 306.882 579.23 364.255 430.65 470.282 484.701 C 594.359 547.955 531.134 704.842 467.282 804.701 C 353.624 982.452 14.343 1049.278 -38.718 807.701 C -47.151 769.31 -52.097 734.16 -38.718 696.701 Z " fill="rgb(255,85,157)"/></g></svg>